<?xml version="1.0" encoding="UTF-8" standalone="no"?>
<svg
   xmlns:dc="http://purl.org/dc/elements/1.1/"
   xmlns:cc="http://creativecommons.org/ns#"
   xmlns:rdf="http://www.w3.org/1999/02/22-rdf-syntax-ns#"
   xmlns:svg="http://www.w3.org/2000/svg"
   xmlns="http://www.w3.org/2000/svg"
   width="332.52731"
   height="292.26361"
   id="svg2"
   version="1.0"
   viewBox="0 0 311.74435 273.99712">
  <defs
     id="defs4" />
  <metadata
     id="metadata7">
    <rdf:RDF>
      <cc:Work
         rdf:about="">
        <dc:format>image/svg+xml</dc:format>
        <dc:type
           rdf:resource="http://purl.org/dc/dcmitype/StillImage" />
        <dc:title></dc:title>
      </cc:Work>
    </rdf:RDF>
  </metadata>
  <g
     transform="translate(-261.76869,-254.76498)"
     style="fill:#ffffff;stroke:none;stroke-opacity:1"
     id="g4642">
    <g
       id="g4608"
       style="fill:#ffffff;stroke:none;stroke-opacity:1">
      <path
         id="rect829"
         d="m 462.85691,259.45787 c -54.37927,1.73917 -109.70542,7.47833 -160.77146,27.31302 -15.53733,6.01995 -31.61176,17.1292 -33.65969,35.0221 -3.30128,29.75241 8.13239,58.73458 18.38591,86.07802 5.00993,13.38208 12.04176,26.03576 17.05043,39.31255 4.38589,21.6326 -26.17339,12.05122 -32.35823,28.4235 -11.76665,16.86435 -2.58808,44.3818 18.59937,47.86764 22.28406,1.31289 44.71676,0.26291 67.06202,0.59991 61.68696,-0.10107 123.38408,0.20249 185.06469,-0.15242 20.17486,-1.26887 31.85003,-24.59966 24.62668,-42.39787 -4.90676,-10.22805 -21.06074,-20.58127 -6.25408,-31.36575 7.16344,-11.79864 2.7923,-26.32448 1.10853,-39.0936 -9.54609,-42.20909 -34.39025,-78.73131 -58.479,-113.91844 -9.19048,-11.57165 -16.61772,-25.11944 -28.20116,-34.4623 -3.6471,-2.19292 -7.91929,-3.32601 -12.17401,-3.22636 z"
         style="opacity:1;fill:#ffffff;fill-opacity:1;stroke:none;stroke-width:0.26798409;stroke-miterlimit:4;stroke-dasharray:none;stroke-opacity:1" />
    </g>
  </g>
  <path
     id="path7004"
     d="M 192.45334,22.406643 C 146.53698,23.452984 109.51908,29.518641 83.301967,36.519156 70.193412,40.019404 59.85156,43.687551 51.882928,47.49816 c -3.984321,1.905295 -7.346456,3.748697 -10.701119,6.377051 -2.241433,1.756156 -5.724024,3.679813 -7.812438,8.435402 -0.45496,0.633005 -1.014682,1.299584 -1.338311,1.870724 -2.413868,4.260013 -3.144318,7.855904 -3.635345,11.615805 -0.982054,7.519801 -0.390097,15.847517 1.762431,26.675408 4.213361,21.19445 14.938741,51.59597 37.807638,94.7196 0.740103,1.99928 1.816947,3.85355 3.182712,5.48048 2.832295,3.69269 6.942244,6.16104 11.50125,6.90743 5.633458,1.79219 9.209324,1.19237 14.564564,1.31149 6.84345,0.15221 14.9607,-0.101 24.11449,-0.62418 18.30757,-1.04635 40.63052,-3.20806 62.23932,-5.82324 21.60881,-2.61517 42.38025,-5.66394 57.76464,-8.61398 7.6922,-1.47503 13.86116,-2.82806 19.12658,-4.52979 2.6327,-0.85086 4.73848,-1.23394 8.88344,-4.16358 2.07247,-1.46481 5.92989,-3.61831 7.88371,-11.2983 0.50604,-1.98909 0.50477,-4.08589 0.20494,-6.16058 C 277.22804,136.74817 258.66869,104.15377 241.4967,77.086981 224.15794,49.7573 206.81297,28.9659 206.81297,28.9659 c -3.55986,-4.272907 -8.83934,-6.684493 -14.35963,-6.559257 z m -8.04766,37.389223 c 5.49057,6.92704 14.85354,19.082757 26.38302,37.255731 12.64578,19.932523 24.1926,44.038053 28.41275,61.401953 -1.85854,0.4044 -2.46463,0.65565 -4.66181,1.07698 -13.96957,2.67875 -34.29385,5.68706 -55.30365,8.22973 -21.00978,2.54269 -42.82826,4.63994 -59.96544,5.6194 -8.5686,0.48973 -16.00106,0.69232 -21.254321,0.57547 -0.393217,-0.008 -0.568809,-0.10273 -0.953395,-0.13169 -19.473359,-37.67023 -28.123719,-63.5326 -31.126788,-78.638964 -1.26082,-6.342304 -1.396211,-10.209116 -1.35435,-12.490738 0.07409,-0.102662 0.147188,-0.206091 0.219195,-0.310277 0.615022,-0.382311 1.006726,-0.683278 2.671265,-1.479268 4.925609,-2.355429 13.631972,-5.588229 25.139162,-8.660889 C 113.96363,66.5418 145.53493,61.328585 184.40568,59.795866 Z M 64.888208,82.260784 c -46.472943,131.039016 -23.236467,65.519516 0,0 z m -0.231659,0.202045 c -0.02336,0.01552 -0.05192,0.05034 -0.07482,0.06493 1.73e-4,-0.0074 -1.73e-4,-0.01653 0,-0.02346 0.01432,-0.0092 0.05949,-0.03187 0.07482,-0.04147 z"
     style="color:#000000;font-style:normal;font-variant:normal;font-weight:normal;font-stretch:normal;font-size:medium;line-height:normal;font-family:sans-serif;font-variant-ligatures:normal;font-variant-position:normal;font-variant-caps:normal;font-variant-numeric:normal;font-variant-alternates:normal;font-feature-settings:normal;text-indent:0;text-align:start;text-decoration:none;text-decoration-line:none;text-decoration-style:solid;text-decoration-color:#000000;letter-spacing:normal;word-spacing:normal;text-transform:none;writing-mode:lr-tb;direction:ltr;text-orientation:mixed;dominant-baseline:auto;baseline-shift:baseline;text-anchor:start;white-space:normal;shape-padding:0;clip-rule:nonzero;display:inline;overflow:visible;visibility:visible;opacity:1;isolation:auto;mix-blend-mode:normal;color-interpolation:sRGB;color-interpolation-filters:linearRGB;solid-color:#000000;solid-opacity:1;vector-effect:none;fill:#ff6600;fill-opacity:1;fill-rule:nonzero;stroke:none;stroke-width:36.72006607;stroke-linecap:round;stroke-linejoin:round;stroke-miterlimit:4;stroke-dasharray:none;stroke-dashoffset:0;stroke-opacity:1;color-rendering:auto;image-rendering:auto;shape-rendering:auto;text-rendering:auto;enable-background:accumulate" />
  <path
     id="path3180"
     d="m 142.57003,31.282665 c -5.8392,0.494201 -11.85716,3.778568 -16.07537,11.19205 -3.78073,7.213746 -4.41669,18.142486 -2.83816,27.266588 1.95501,11.688338 7.62457,21.739346 14.56423,23.736561 6.516,1.984479 13.26318,-1.194945 18.86391,-7.129547 4.22357,-4.431938 8.23698,-10.818485 9.51491,-19.487133 1.65701,-10.515874 -1.40601,-22.287737 -6.62005,-27.857863 -4.9609,-5.526133 -10.9336,-7.48499 -16.72647,-7.750203 -0.22766,0.0099 -0.45534,0.01967 -0.683,0.02956 z"
     style="fill:#feda00;fill-opacity:1;fill-rule:nonzero;stroke:none;stroke-width:0.62070143;stroke-linecap:round;stroke-linejoin:round;stroke-miterlimit:4;stroke-dasharray:none;stroke-dashoffset:200;stroke-opacity:1" />
  <ellipse
     id="path3190"
     style="fill:#feda00;fill-opacity:1;fill-rule:nonzero;stroke:none;stroke-width:1.9500668"
     cx="178.0654"
     cy="92.226799"
     rx="15.120144"
     ry="13.581159" />
  <flowRoot
     transform="matrix(0.93749997,0,0,0.93749997,-33.073666,-31.428358)"
     style="font-style:normal;font-weight:normal;font-size:40px;line-height:125%;font-family:sans-serif;letter-spacing:0px;word-spacing:0px;fill:#000000;fill-opacity:1;stroke:none;stroke-width:1px;stroke-linecap:butt;stroke-linejoin:miter;stroke-opacity:1"
     id="flowRoot840"
     xml:space="preserve"><flowRegion
       style="fill:#000000;stroke:none"
       id="flowRegion842"><rect
         style="fill:#000000;stroke:none"
         y="299.39099"
         x="65.52446"
         height="42.502354"
         width="241.43697"
         id="rect844" /></flowRegion><flowPara
       id="flowPara846">migasfree</flowPara></flowRoot>  <g
     id="text842"
     style="font-style:normal;font-variant:normal;font-weight:normal;font-stretch:condensed;font-size:61.92536545px;line-height:125%;font-family:Strait;-inkscape-font-specification:'Strait, Condensed';font-variant-ligatures:normal;font-variant-caps:normal;font-variant-numeric:normal;font-feature-settings:normal;text-align:start;letter-spacing:0px;word-spacing:0px;writing-mode:lr-tb;text-anchor:start;fill:#000000;fill-opacity:1;stroke:none;stroke-width:1.54813397px;stroke-linecap:butt;stroke-linejoin:miter;stroke-opacity:1"
     transform="matrix(1.091437,0,0,0.91622329,-261.76869,-254.76498)"
     aria-label="migasfree">
    <path
       id="path836"
       style="font-style:normal;font-variant:normal;font-weight:normal;font-stretch:condensed;font-size:61.92536545px;font-family:Strait;-inkscape-font-specification:'Strait, Condensed';font-variant-ligatures:normal;font-variant-caps:normal;font-variant-numeric:normal;font-feature-settings:normal;text-align:start;writing-mode:lr-tb;text-anchor:start;stroke:#000000;stroke-width:1.40624995;stroke-opacity:1;stroke-miterlimit:4;stroke-dasharray:none"
       d="m 296.2838,531.40978 v 22.66468 h -5.07788 V 530.7286 q 0,-3.03434 -0.86696,-4.27285 -0.86695,-1.23851 -4.08707,-1.23851 -3.15819,0 -4.33478,1.42429 -1.11465,1.36235 -1.11465,3.96322 v 23.46971 h -5.07788 V 530.7286 q 0,-3.03434 -0.86696,-4.27285 -0.86695,-1.23851 -4.08707,-1.23851 -3.1582,0 -4.33478,1.42429 -1.11465,1.36235 -1.11465,3.96322 v 23.46971 h -5.07788 v -32.20119 h 2.78664 l 0.80503,3.03435 q 1.11465,-1.67199 2.84856,-2.53894 1.79584,-0.92888 2.97242,-1.05274 1.17658,-0.12385 3.03434,-0.12385 5.01596,0 6.87372,3.4059 2.47701,-3.4059 8.60763,-3.4059 5.1398,0 6.74986,3.1582 1.36236,2.72471 1.36236,7.05949 z" />
    <path
       id="path838"
       style="font-style:normal;font-variant:normal;font-weight:normal;font-stretch:condensed;font-size:61.92536545px;font-family:Strait;-inkscape-font-specification:'Strait, Condensed';font-variant-ligatures:normal;font-variant-caps:normal;font-variant-numeric:normal;font-feature-settings:normal;text-align:start;writing-mode:lr-tb;text-anchor:start;stroke:#000000;stroke-width:1.40624995;stroke-opacity:1;stroke-miterlimit:4;stroke-dasharray:none"
       d="m 306.80821,521.87327 h 5.07788 v 32.20119 h -5.07788 z m 1.17658,-12.13737 q 0.43348,-0.0619 1.36236,-0.0619 0.92888,0 1.36236,0.0619 0.43347,0.0619 0.92888,0.37155 0.92888,0.43348 0.92888,2.16739 0,1.67199 -0.18578,2.35317 -0.18578,0.61925 -0.7431,0.92888 -0.49541,0.2477 -0.92888,0.30962 -0.43348,0.0619 -1.36236,0.0619 -0.92888,0 -1.36236,-0.0619 -0.43348,-0.0619 -0.92888,-0.30962 -0.92888,-0.49541 -0.92888,-2.16739 0,-1.73391 0.18577,-2.35317 0.18578,-0.68118 0.68118,-0.92888 0.55733,-0.30962 0.99081,-0.37155 z" />
    <path
       id="path840"
       style="font-style:normal;font-variant:normal;font-weight:normal;font-stretch:condensed;font-size:61.92536545px;font-family:Strait;-inkscape-font-specification:'Strait, Condensed';font-variant-ligatures:normal;font-variant-caps:normal;font-variant-numeric:normal;font-feature-settings:normal;text-align:start;writing-mode:lr-tb;text-anchor:start;stroke:#000000;stroke-width:1.40624995;stroke-opacity:1;stroke-miterlimit:4;stroke-dasharray:none"
       d="m 338.62043,544.10448 v -18.20606 q -3.40589,-0.68118 -6.37831,-0.68118 -2.91049,0 -3.96323,1.17658 -0.9908,1.17659 -0.9908,4.64441 v 12.9424 q 0,3.03434 0.92888,4.27285 0.92888,1.23851 4.3967,1.23851 3.52975,0 4.76825,-1.36236 1.23851,-1.42429 1.23851,-4.02515 z m 0.30963,12.38507 v -5.44943 q -2.60087,2.41509 -8.11223,2.41509 -5.44943,0 -7.12141,-3.52975 -1.61006,-3.52974 -1.61006,-11.88967 0,-8.60762 0.92888,-11.08464 1.17658,-3.34397 3.03434,-4.33477 2.78664,-1.42429 7.30719,-1.42429 4.52056,0 10.65117,1.79584 v 33.31585 q 0,2.47701 -0.37155,4.02514 -0.30963,1.61006 -1.30044,3.03435 -1.91968,2.72471 -7.80259,2.72471 -5.88291,0 -10.71309,-2.35316 l 0.9908,-3.09627 q 4.21093,1.36236 7.8026,1.36236 3.59167,0 4.95403,-1.17658 1.36236,-1.11466 1.36236,-4.33478 z" />
    <path
       id="path842"
       style="font-style:normal;font-variant:normal;font-weight:normal;font-stretch:condensed;font-size:61.92536545px;font-family:Strait;-inkscape-font-specification:'Strait, Condensed';font-variant-ligatures:normal;font-variant-caps:normal;font-variant-numeric:normal;font-feature-settings:normal;text-align:start;writing-mode:lr-tb;text-anchor:start;stroke:#000000;stroke-width:1.40624995;stroke-opacity:1;stroke-miterlimit:4;stroke-dasharray:none"
       d="m 375.43699,554.07446 h -2.78664 l -0.80503,-3.03434 q -1.48621,1.67198 -3.34397,2.60087 -1.85776,0.86695 -3.09627,0.9908 -1.23851,0.18578 -3.52974,0.18578 -2.22932,0 -3.96323,-0.80503 -1.73391,-0.80503 -2.60086,-2.41509 -1.36236,-2.60087 -1.36236,-6.99757 0,-5.57328 3.22012,-7.24527 1.30043,-0.61925 2.29124,-0.9908 1.05273,-0.37155 3.09626,-0.55733 2.10547,-0.18578 3.52975,-0.18578 1.48621,-0.0619 4.27285,-0.12385 v -4.6444 q 0,-3.22012 -1.36236,-4.33477 -1.36236,-1.17659 -4.95403,-1.17659 -3.59167,0 -7.80259,1.36236 l -0.99081,-3.09627 q 4.83018,-2.35316 10.21769,-2.35316 6.44023,0 8.298,2.60086 0.9908,1.42429 1.30043,2.97242 0.37155,1.54814 0.37155,4.02515 z m -5.07788,-8.66955 v -6.37831 q -6.31639,0 -7.55489,0.4954 -1.17659,0.43348 -2.10547,0.92888 -1.67198,0.86696 -1.67198,3.4059 v 1.42428 q 0,3.03434 0.92888,4.27285 0.92888,1.23851 4.3967,1.23851 3.52975,0 4.76825,-1.36236 1.23851,-1.42428 1.23851,-4.02515 z" />
    <path
       id="path844"
       style="font-style:normal;font-variant:normal;font-weight:normal;font-stretch:condensed;font-size:61.92536545px;font-family:Strait;-inkscape-font-specification:'Strait, Condensed';font-variant-ligatures:normal;font-variant-caps:normal;font-variant-numeric:normal;font-feature-settings:normal;text-align:start;writing-mode:lr-tb;text-anchor:start;stroke:#000000;stroke-width:1.40624995;stroke-opacity:1;stroke-miterlimit:4;stroke-dasharray:none"
       d="m 397.73593,536.11611 q 3.34397,0.43347 4.8921,2.47701 1.61006,2.04354 1.61006,6.56409 0,4.45863 -2.41509,7.05949 -2.35316,2.60087 -7.98837,2.60087 -5.57328,0 -9.78421,-2.04354 l 0.99081,-3.09627 q 5.57328,1.05273 8.60762,1.05273 3.03435,0 4.33478,-1.17658 1.30043,-1.23851 1.30043,-3.6536 0,-2.47701 -0.7431,-3.71552 -0.68118,-1.2385 -2.91049,-1.54813 l -5.01596,-0.68118 q -3.6536,-0.4954 -4.95403,-2.72472 -1.30043,-2.29124 -1.30043,-6.56409 0,-4.27285 2.47701,-6.87371 2.53894,-2.60087 6.87372,-2.60087 5.69713,0 9.59843,2.04354 l -0.92888,3.46782 q -5.01595,-1.17658 -7.8026,-1.17658 -2.72471,0 -4.02514,0.92888 -1.23851,0.92888 -1.23851,3.71552 0,2.78664 0.55733,3.83937 0.55732,1.05274 2.84856,1.42429 z" />
    <path
       id="path846"
       style="font-style:normal;font-variant:normal;font-weight:normal;font-stretch:condensed;font-size:61.92536545px;font-family:Strait;-inkscape-font-specification:'Strait, Condensed';font-variant-ligatures:normal;font-variant-caps:normal;font-variant-numeric:normal;font-feature-settings:normal;text-align:start;writing-mode:lr-tb;text-anchor:start;stroke:#000000;stroke-width:1.40624995;stroke-opacity:1;stroke-miterlimit:4;stroke-dasharray:none"
       d="m 425.43592,512.46062 q -2.72472,0 -3.9013,1.61006 -1.17658,1.54813 -1.17658,5.69713 v 2.10546 h 5.82098 v 3.6536 h -5.82098 v 28.54759 h -5.07788 v -28.54759 h -4.27285 v -2.72472 l 4.27285,-0.86695 q 0.18578,-8.298 2.41509,-10.71309 2.04354,-2.29124 6.06868,-2.29124 1.73392,0 4.52056,0.4954 l -0.37156,3.22012 q -1.42428,-0.18577 -2.47701,-0.18577 z" />
    <path
       id="path848"
       style="font-style:normal;font-variant:normal;font-weight:normal;font-stretch:condensed;font-size:61.92536545px;font-family:Strait;-inkscape-font-specification:'Strait, Condensed';font-variant-ligatures:normal;font-variant-caps:normal;font-variant-numeric:normal;font-feature-settings:normal;text-align:start;writing-mode:lr-tb;text-anchor:start;stroke:#000000;stroke-width:1.40624995;stroke-opacity:1;stroke-miterlimit:4;stroke-dasharray:none"
       d="m 438.39767,554.07446 h -5.07788 v -32.20119 h 2.78664 l 0.99081,3.77745 q 4.52055,-4.3967 10.77501,-4.45863 l -0.4954,4.45863 q -5.63521,0 -8.97918,3.34397 z" />
    <path
       id="path850"
       style="font-style:normal;font-variant:normal;font-weight:normal;font-stretch:condensed;font-size:61.92536545px;font-family:Strait;-inkscape-font-specification:'Strait, Condensed';font-variant-ligatures:normal;font-variant-caps:normal;font-variant-numeric:normal;font-feature-settings:normal;text-align:start;writing-mode:lr-tb;text-anchor:start;stroke:#000000;stroke-width:1.40624995;stroke-opacity:1;stroke-miterlimit:4;stroke-dasharray:none"
       d="m 457.48713,530.66667 v 6.37832 q 6.31639,0 7.49297,-0.43348 1.23851,-0.4954 2.16739,-0.99081 1.67199,-0.86695 1.67199,-3.40589 v -1.42428 q 0,-3.03435 -0.92888,-4.27285 -0.92888,-1.23851 -4.45863,-1.23851 -3.46782,0 -4.70633,1.42428 -1.23851,1.36236 -1.23851,3.96322 z m 0.55733,-8.66955 q 1.05273,-0.4954 2.41509,-0.61925 1.36236,-0.18578 3.83937,-0.18578 2.53894,0 4.70633,0.68118 2.16739,0.68118 3.1582,2.16739 1.05273,1.42428 1.36235,2.97242 0.37156,1.48621 0.37156,3.46782 0,1.91968 -0.24771,3.22012 -0.2477,1.2385 -0.61925,2.16739 -0.30963,0.92888 -1.11466,1.67198 -0.7431,0.68118 -1.42428,1.17658 -0.61925,0.49541 -1.91969,0.86696 -1.2385,0.30962 -2.16738,0.4954 -0.92888,0.18578 -2.66279,0.30963 -2.60087,0.18577 -6.25447,0.18577 v 4.64441 q 0,3.22011 1.36236,4.3967 1.36236,1.11465 4.149,1.11465 5.13981,0 9.22688,-1.73391 l 0.99081,3.09627 q -4.64441,2.72472 -10.27961,2.72472 -2.97242,0 -4.83018,-0.68118 -1.79584,-0.61926 -2.60087,-1.42429 -0.7431,-0.80502 -1.30043,-1.4862 -0.55733,-0.68118 -0.92888,-1.98162 -0.30963,-1.30043 -0.4954,-2.22931 -0.18578,-0.9908 -0.2477,-2.72471 -0.18578,-2.97242 -0.18578,-5.57329 v -3.71552 q 0,-3.28204 0.2477,-4.70633 0.2477,-1.42428 0.4954,-2.66279 0.2477,-1.30043 0.68118,-1.91968 0.43348,-0.68118 0.99081,-1.54814 0.61925,-0.86695 1.42428,-1.30043 0.86696,-0.43348 1.85776,-0.86696 z" />
    <path
       id="path852"
       style="font-style:normal;font-variant:normal;font-weight:normal;font-stretch:condensed;font-size:61.92536545px;font-family:Strait;-inkscape-font-specification:'Strait, Condensed';font-variant-ligatures:normal;font-variant-caps:normal;font-variant-numeric:normal;font-feature-settings:normal;text-align:start;writing-mode:lr-tb;text-anchor:start;stroke:#000000;stroke-width:1.40624995;stroke-opacity:1;stroke-miterlimit:4;stroke-dasharray:none"
       d="m 487.11938,530.66667 v 6.37832 q 6.31639,0 7.49297,-0.43348 1.23851,-0.4954 2.16739,-0.99081 1.67198,-0.86695 1.67198,-3.40589 v -1.42428 q 0,-3.03435 -0.92888,-4.27285 -0.92888,-1.23851 -4.45862,-1.23851 -3.46782,0 -4.70633,1.42428 -1.23851,1.36236 -1.23851,3.96322 z m 0.55733,-8.66955 q 1.05273,-0.4954 2.41509,-0.61925 1.36236,-0.18578 3.83937,-0.18578 2.53894,0 4.70633,0.68118 2.16739,0.68118 3.15819,2.16739 1.05274,1.42428 1.36236,2.97242 0.37155,1.48621 0.37155,3.46782 0,1.91968 -0.2477,3.22012 -0.2477,1.2385 -0.61925,2.16739 -0.30963,0.92888 -1.11466,1.67198 -0.7431,0.68118 -1.42428,1.17658 -0.61925,0.49541 -1.91969,0.86696 -1.2385,0.30962 -2.16739,0.4954 -0.92888,0.18578 -2.66279,0.30963 -2.60086,0.18577 -6.25446,0.18577 v 4.64441 q 0,3.22011 1.36236,4.3967 1.36236,1.11465 4.149,1.11465 5.13981,0 9.22688,-1.73391 l 0.99081,3.09627 q -4.64441,2.72472 -10.27962,2.72472 -2.97241,0 -4.83017,-0.68118 -1.79584,-0.61926 -2.60087,-1.42429 -0.7431,-0.80502 -1.30043,-1.4862 -0.55733,-0.68118 -0.92888,-1.98162 -0.30963,-1.30043 -0.49541,-2.22931 -0.18577,-0.9908 -0.2477,-2.72471 -0.18577,-2.97242 -0.18577,-5.57329 v -3.71552 q 0,-3.28204 0.2477,-4.70633 0.2477,-1.42428 0.4954,-2.66279 0.2477,-1.30043 0.68118,-1.91968 0.43348,-0.68118 0.99081,-1.54814 0.61925,-0.86695 1.42428,-1.30043 0.86695,-0.43348 1.85776,-0.86696 z" />
  </g>
</svg>
